
<svg xmlns="http://www.w3.org/2000/svg" width="230.24mm" height="93.35mm" viewBox="0 0 652.66 264.6"><title>hive_logo_colour_RGB</title><path d="M380,155.48c0-5.88,3.49-8.93,8.06-8.93,5.45,0,8.06,3,8.06,8.93v51.2c7.19-9.37,20-15.69,33.33-15.69,27.23,0,42.48,17,42.48,47.27v54c0,6.1-3.71,9.15-8.28,9.15-5.45,0-8.06-3.05-8.06-9.15V237c0-19.82-10-30.93-27.23-30.93-20.91,0-32.24,15.9-32.24,41.39v44.87c0,6.1-2.61,9.15-8.06,9.15s-8.06-3.05-8.06-9.15Z" transform="translate(-94.62 -94.47)" fill="#1f2d3d"/><path d="M503.15,149.82c5-4.57,12.64-4.57,17.21,0,5,4.58,5,12.2,0,17.21-4.57,4.57-12.2,4.57-17.21,0C498.58,162,498.58,154.4,503.15,149.82Zm16.78,142.46c0,6.1-2.62,9.15-8.06,9.15s-8.06-3.05-8.06-9.15V201.45c0-5.88,3.48-8.93,8.06-8.93,5.44,0,8.06,3,8.06,8.93Z" transform="translate(-94.62 -94.47)" fill="#1f2d3d"/><path d="M545.54,204.28c-2.18-5.66-.65-9.37,4.57-11.33,5.23-1.52,8.94.44,10.9,6.1l30.49,81.69L622,199.05c2-5.66,5.66-7.62,10.89-6.1,5.23,2,6.75,5.67,4.57,11.33l-34.41,88c-2.4,6.1-6.1,9.15-11.55,9.15s-9.15-3.05-11.32-8.93Z" transform="translate(-94.62 -94.47)" fill="#1f2d3d"/><path d="M736.16,252H667.55c1.52,22.44,15,35.73,35.94,35.73a35.56,35.56,0,0,0,25.92-10.89c4.14-4.14,8.06-4.14,11.76-.44,3.27,3.71,2.84,7.63-1.08,11.55a51.21,51.21,0,0,1-36.6,14.81c-15.9,0-28.75-5-38.34-15.25C655.78,277.25,651,264,651,247.63c0-15.69,4.79-29,14.16-40.08,9.59-11.11,21.57-16.56,36.16-16.56,33.11,0,46,27,46,51C747.27,248.72,743.57,252,736.16,252Zm-68-14.37h62.74c-.22-19-11.55-31.37-29.19-31.37C683.45,206.24,670.82,219.31,668.2,237.61Z" transform="translate(-94.62 -94.47)" fill="#1f2d3d"/><path d="M316,148.34,230.47,99a33.54,33.54,0,0,0-33.55,0l-85.53,49.38a33.55,33.55,0,0,0-16.77,29v98.76a33.53,33.53,0,0,0,16.77,29.05l85.52,49.38a33.55,33.55,0,0,0,33.54,0L316,305.2a33.53,33.53,0,0,0,16.77-29.05V177.39A33.52,33.52,0,0,0,316,148.34Z" transform="translate(-94.62 -94.47)" fill="#e83b59"/><path d="M293.12,161.54l-62.66-36.17a33.55,33.55,0,0,0-33.54,0l-62.66,36.18a33.53,33.53,0,0,0-16.77,29V263A33.55,33.55,0,0,0,134.26,292l62.65,36.17a33.5,33.5,0,0,0,33.54,0L293.11,292A33.55,33.55,0,0,0,309.89,263V190.6A33.56,33.56,0,0,0,293.12,161.54Z" transform="translate(-94.62 -94.47)" fill="#f59c17"/><path d="M268.89,175.53l-38.43-22.18a33.5,33.5,0,0,0-33.54,0l-38.43,22.18a33.55,33.55,0,0,0-16.77,29.05V249a33.55,33.55,0,0,0,16.78,29l38.42,22.18a33.52,33.52,0,0,0,33.55,0L268.89,278a33.55,33.55,0,0,0,16.77-29V204.58A33.54,33.54,0,0,0,268.89,175.53Z" transform="translate(-94.62 -94.47)" fill="#ffd10f"/><circle cx="119.07" cy="132.3" r="47.31" fill="#ffe887"/></svg>
